<svg id="object" xmlns="http://www.w3.org/2000/svg" viewBox="0 0 167.31 56.54"><title>1</title><path d="M378.15,57.88c-18.7-6.15-36-7.16-55.36-3.85-9.48,1.62-18.84,3.87-28.52,2.7C288.46,56,282.66,55,276.89,54c-19.39-3.32-36.66-2.3-55.36,3.85-5.56,1.83-6.56,3.39-4,8.71C222.46,77,228.45,87,236.7,95.13c7.66,7.55,18.64,15.76,30.21,13.06,9.14-2.12,15.26-10.27,22.74-15.13,10-6.53,18.71-1.71,27.17,4.85,4.37,3.39,10.45,9,16,10.28,11.57,2.69,22.55-5.51,30.21-13.06C371.23,87,377.23,77,382.18,66.59,384.71,61.27,383.72,59.71,378.15,57.88ZM245.15,72c15.28-11.32,32.45-9.77,41.49,7.79C274.67,88.54,253.91,87.75,245.15,72ZM313,79.76c9-17.56,26.21-19.11,41.49-7.79C345.77,87.75,325,88.54,313,79.76Z" transform="translate(-216.19 -52.17)" fill="#c1272d" fill-rule="evenodd"/></svg>