<svg id="object" xmlns="http://www.w3.org/2000/svg" xmlns:xlink="http://www.w3.org/1999/xlink" viewBox="0 0 168.58 69.84"><defs><linearGradient id="New_Gradient_Swatch_14" x1="599.42" y1="201.19" x2="768" y2="201.19" gradientUnits="userSpaceOnUse"><stop offset="0.23" stop-color="#8c0100"/><stop offset="0.48" stop-color="#d90700"/><stop offset="0.58" stop-color="#ff2429"/><stop offset="0.68" stop-color="#ff3c3f"/><stop offset="0.76" stop-color="#ff5454"/><stop offset="0.88" stop-color="#ff7676"/><stop offset="1" stop-color="#ff9c9c"/></linearGradient></defs><title>2</title><path d="M767.69,166.28c-0.54-.21-4.56,4.28-5,4.63A51.85,51.85,0,0,1,751,178.5c-11,5.05-20.4-1.85-31.51-1.73-9.15.1-18.42,3-26.45,7.3a19.54,19.54,0,0,1-18.61,0c-8-4.25-17.3-7.2-26.45-7.3-11.11-.12-20.53,6.78-31.51,1.73a51.85,51.85,0,0,1-11.75-7.59c-0.41-.35-4.43-4.83-5-4.63-2.79,19.16,13.57,64.26,35.92,69,12.07,2.59,21.15-1.6,36.24-6.7a34.2,34.2,0,0,1,23.65,0c15.08,5.1,24.17,9.29,36.24,6.7C754.12,230.54,770.49,185.44,767.69,166.28ZM632.61,197.69c14.61-7.47,33.15,1.07,39.29,13C658.46,219.53,635.16,215,632.61,197.69Zm62.9,13c6.15-11.89,24.68-20.42,39.29-13C732.26,215,709,219.53,695.52,210.65Z" transform="translate(-599.42 -166.27)" fill-rule="evenodd" fill="url(#New_Gradient_Swatch_14)"/></svg>