<svg width = "100" height ="100" id="object" xmlns="http://www.w3.org/2000/svg" viewBox="0 0 155.81 55.59"><title>3</title><path d="M259.45,380.88l5.75,3c-4.45-5.09-6.28-10.76-6.68-17.66,9.8,6.18,19.8,4.16,29.54,2.61,12.15-1.93,23.57-1.54,34.74,4.6,8.47,4.66,17.87,4.85,26.4,0,11-6.22,22.35-6.73,34.33-4.69a73.33,73.33,0,0,0,15,1.34c4.87-.19,9.7-1.58,14.84-2.5a25.46,25.46,0,0,1-6.58,16.27l7.09-3.66c-1.08,4.36-1.77,8-2.95,11.5a15.68,15.68,0,0,0-1,6c0.2,6.7-2.06,12.89-8.29,16.63-12.25,7.35-25,10-38.74,4.13-5.24-2.24-10.68-4-15.9-6.29-7.92-3.43-15.5-3-23.48.29-8.29,3.46-16.78,6.87-25.51,8.7-11.32,2.38-21.65-2.09-30.3-9.06-4.73-3.81-7.42-9.68-4.92-16.44,0.18-.49-0.67-1.31-0.9-2-1.31-4.16-2.57-8.34-3.85-12.51Zm63.36,16.36c-1.65-6.36-5.5-10.79-11.65-13-10.05-3.57-19.19-1.06-27.82,4.46C289.43,402.38,309.4,402.3,322.81,397.25Zm65.94-8.57c-9.6-5.78-19.39-8.47-29.95-3.47a17.21,17.21,0,0,0-9.59,12.19C364.84,402.57,382.76,401.67,388.75,388.67Z" transform="translate(-258.1 -366.2)" fill="#2e3192" fill-rule="evenodd"/></svg>