<svg id="object" xmlns="http://www.w3.org/2000/svg" viewBox="0 0 220.04 71.34"><title>4</title><path d="M547.67,652l-16.93-2.46-7.57-15.34-7.57,15.34c-13.17,1.91-23.55-3-36.41-4-10.93-.81-20.32,4.64-30.2,8.54-19.14,7.56-34.1-9.92-52.87-8.54-12.87,1-23.24,5.88-36.41,4l-7.57-15.34-7.57,15.34L327.63,652l12.25,11.94L337,680.75c9.18-4.83,16.17-11.84,24.91-3.57,10,9.46,14.08,25.57,29.45,27.86,12.35,1.84,23.17-2.05,33.27-8.93,9.15-6.23,17-6.19,26.07,0,10.1,6.88,20.91,10.77,33.26,8.93,15.37-2.29,19.45-18.4,29.45-27.86,8.74-8.26,15.73-1.25,24.91,3.57l-2.89-16.86Zm-170.4,17.56c7.28-2,14.41-4.35,21.73-5.81,11-2.21,19.24,3.23,24.58,15.64C410.43,688.31,387.78,689.56,377.27,669.51Zm74.45,9.83c5.34-12.42,13.58-17.85,24.58-15.64,7.32,1.47,14.45,3.83,21.73,5.81C487.51,689.56,464.86,688.31,451.72,679.34Z" transform="translate(-327.63 -634.15)" fill="#009245" fill-rule="evenodd"/></svg>