<svg id="Layer_1" data-name="Layer 1" xmlns="http://www.w3.org/2000/svg" xmlns:xlink="http://www.w3.org/1999/xlink" viewBox="0 0 172.15 68.31"><defs><clipPath id="clip-path" transform="translate(-63.27 -251.8)"><path d="M129.55,299.57v-2.69a62.69,62.69,0,0,0,8.48-.5v2.69A62.7,62.7,0,0,1,129.55,299.57Z" fill="none"/></clipPath><clipPath id="clip-path-2" transform="translate(-63.27 -251.8)"><path d="M138.11,295.37v2.69a5.58,5.58,0,0,1-.07,1v-2.69A5.58,5.58,0,0,0,138.11,295.37Z" fill="none"/></clipPath><clipPath id="clip-path-3" transform="translate(-63.27 -251.8)"><path d="M165,298.26v-2.69a41.24,41.24,0,0,0,12.86,2.13,38.74,38.74,0,0,0,25.8-10.17v2.69a38.74,38.74,0,0,1-25.8,10.17A41.24,41.24,0,0,1,165,298.26Z" fill="none"/></clipPath><clipPath id="clip-path-4" transform="translate(-63.27 -251.8)"><path d="M210.83,277.82v2.69c0,1.36-2.52,5.54-7.18,9.71v-2.69C208.31,283.36,210.83,279.19,210.83,277.82Z" fill="none"/></clipPath><clipPath id="clip-path-5" transform="translate(-63.27 -251.8)"><path d="M90.33,278.89V276.2c6.92,18,27.48,20.68,39.22,20.68v2.69C117.81,299.57,97.25,296.86,90.33,278.89Z" fill="none"/></clipPath><clipPath id="clip-path-6" transform="translate(-63.27 -251.8)"><path d="M152.11,271.54v-2.69q0.62,0,1.24,0a24.47,24.47,0,0,0,11.17-2.69v2.69a24.47,24.47,0,0,1-11.17,2.69Q152.73,271.57,152.11,271.54Z" fill="none"/></clipPath><clipPath id="clip-path-7" transform="translate(-63.27 -251.8)"><path d="M77.08,262v-2.69a15.45,15.45,0,0,0,6.54,1.8c0.46,0,1,0,1.48,0a33.52,33.52,0,0,0,7.05-.74c6.65-1.41,15.28-4.9,20.67-4.9,0.31,0,.61,0,0.89,0,5.3,0.44,11.21,2.88,16.67,5.67,2.52,1.3,4.76,2.56,6.43,3.55a26.82,26.82,0,0,0,7.08,2.92v2.69a26.82,26.82,0,0,1-7.08-2.92c-1.67-1-3.91-2.26-6.43-3.55-5.45-2.79-11.37-5.23-16.67-5.67-0.29,0-.58,0-0.89,0-5.39,0-14,3.49-20.67,4.9a33.52,33.52,0,0,1-7.05.74c-0.52,0-1,0-1.48,0A15.45,15.45,0,0,1,77.08,262Z" fill="none"/></clipPath><clipPath id="clip-path-8" transform="translate(-63.27 -251.8)"><path d="M63.27,256.92v-2.69a0.42,0.42,0,0,1,.33-0.43v2.69A0.42,0.42,0,0,0,63.27,256.92Z" fill="none"/></clipPath><clipPath id="clip-path-9" transform="translate(-63.27 -251.8)"><path d="M63.6,256.49v-2.69A10.68,10.68,0,0,1,68,255c4.47,1.93,7.34,3.33,9.08,4.24V262c-1.74-.91-4.61-2.3-9.08-4.24A10.68,10.68,0,0,0,63.6,256.49Z" fill="none"/></clipPath><clipPath id="clip-path-10" transform="translate(-63.27 -251.8)"><path d="M164.52,268.88v-2.69A42.64,42.64,0,0,0,170,262.9a44.67,44.67,0,0,1,5.43-3.29,35.92,35.92,0,0,1,16.14-4.18q0.91,0,1.84.06c4.5,0.29,7.69,1.83,10.76,3.22a23.88,23.88,0,0,0,9.8,2.16q0.91,0,1.82-.08c4.82-.4,9.24-2.39,18.31-8.58v2.69c-9.06,6.19-13.48,8.18-18.31,8.58q-0.91.08-1.82,0.08a23.88,23.88,0,0,1-9.8-2.16c-3.08-1.39-6.26-2.93-10.76-3.22q-0.93-.06-1.84-0.06a35.92,35.92,0,0,0-16.14,4.18,44.67,44.67,0,0,0-5.43,3.29A42.64,42.64,0,0,1,164.52,268.88Z" fill="none"/></clipPath><clipPath id="clip-path-11" transform="translate(-63.27 -251.8)"><path d="M235.42,253v2.69a2.4,2.4,0,0,0-.12-0.88v-2.69A2.4,2.4,0,0,1,235.42,253Z" fill="none"/></clipPath><clipPath id="clip-path-12" transform="translate(-63.27 -251.8)"><path d="M234.07,254.9v-2.69a1.4,1.4,0,0,1,.79-0.42,0.46,0.46,0,0,1,.44.35v2.69a0.46,0.46,0,0,0-.44-0.35A1.4,1.4,0,0,0,234.07,254.9Z" fill="none"/></clipPath></defs><title>5</title><g style="isolation:isolate"><g style="isolation:isolate"><g clip-path="url(#clip-path)"><g style="isolation:isolate"><path d="M129.55,299.57v-2.69c1.14,0,2.19,0,3.13-.06v2.69c-0.94,0-2,.06-3.13.06" transform="translate(-63.27 -251.8)" fill="#894046"/><path d="M132.69,299.5v-2.69c3.23-.13,5.21-0.42,5.35-0.44v2.69c-0.13,0-2.11.31-5.35,0.44" transform="translate(-63.27 -251.8)" fill="#853e44"/></g></g></g><g style="isolation:isolate"><g clip-path="url(#clip-path-2)"><g style="isolation:isolate"><path d="M138,299.07v-2.69a5.58,5.58,0,0,0,.07-1v2.69a5.58,5.58,0,0,1-.07,1" transform="translate(-63.27 -251.8)" fill="#7b3a3f"/></g></g></g><g style="isolation:isolate"><g clip-path="url(#clip-path-3)"><g style="isolation:isolate"><path d="M165,298.26v-2.69q1.56,0.51,3.08.89v2.69q-1.52-.38-3.08-0.89" transform="translate(-63.27 -251.8)" fill="#93454b"/><path d="M168.07,299.15v-2.69a41.44,41.44,0,0,0,5.93,1v2.69a41.44,41.44,0,0,1-5.93-1" transform="translate(-63.27 -251.8)" fill="#8e4349"/><path d="M174,300.2v-2.69a38.42,38.42,0,0,0,3.84.19q0.76,0,1.5,0v2.69q-0.74,0-1.5,0a38.42,38.42,0,0,1-3.84-.19" transform="translate(-63.27 -251.8)" fill="#894046"/><path d="M179.35,300.36v-2.69a36.77,36.77,0,0,0,5.39-.62v2.69a36.77,36.77,0,0,1-5.39.62" transform="translate(-63.27 -251.8)" fill="#853e44"/><path d="M184.73,299.75v-2.69A37.22,37.22,0,0,0,191,295.3V298a37.22,37.22,0,0,1-6.23,1.76" transform="translate(-63.27 -251.8)" fill="#803c41"/><path d="M191,298V295.3a40.79,40.79,0,0,0,12.68-7.76v2.69A40.79,40.79,0,0,1,191,298" transform="translate(-63.27 -251.8)" fill="#7b3a3f"/></g></g></g><g style="isolation:isolate"><g clip-path="url(#clip-path-4)"><g style="isolation:isolate"><path d="M203.65,290.22v-2.69c4.66-4.18,7.18-8.35,7.18-9.71v2.69c0,1.36-2.52,5.54-7.18,9.71" transform="translate(-63.27 -251.8)" fill="#7b3a3f"/></g></g></g><g style="isolation:isolate"><g clip-path="url(#clip-path-5)"><g style="isolation:isolate"><path d="M90.33,278.89V276.2a28.45,28.45,0,0,0,3.19,6v2.69a28.45,28.45,0,0,1-3.19-6" transform="translate(-63.27 -251.8)" fill="#98474d"/><path d="M93.52,284.94v-2.69a27.88,27.88,0,0,0,5.28,5.69v2.69a27.88,27.88,0,0,1-5.28-5.69" transform="translate(-63.27 -251.8)" fill="#9c4950"/><path d="M98.8,290.63v-2.69a33.64,33.64,0,0,0,7.82,4.72v2.69a33.64,33.64,0,0,1-7.82-4.72" transform="translate(-63.27 -251.8)" fill="#98474d"/><path d="M106.62,295.34v-2.69a45.13,45.13,0,0,0,7.16,2.42v2.69a45.13,45.13,0,0,1-7.16-2.42" transform="translate(-63.27 -251.8)" fill="#93454b"/><path d="M113.78,297.76v-2.69a59.71,59.71,0,0,0,8.51,1.45v2.69a59.71,59.71,0,0,1-8.51-1.45" transform="translate(-63.27 -251.8)" fill="#8e4349"/><path d="M122.29,299.21v-2.69c2.63,0.26,5.1.36,7.27,0.36v2.69c-2.17,0-4.64-.09-7.27-0.36" transform="translate(-63.27 -251.8)" fill="#894046"/></g></g></g><polygon points="88.31 19.72 88.31 17.03 88.84 17.06 88.84 19.75 88.31 19.72" fill="#894046"/><polygon points="84.57 19.52 84.57 16.83 88.31 17.03 88.31 19.72 84.57 19.52" fill="#894046"/><polygon points="80.64 18.52 80.64 15.84 84.57 16.83 84.57 19.52 80.64 18.52" fill="#904349"/><g style="isolation:isolate"><g clip-path="url(#clip-path-6)"><g style="isolation:isolate"><path d="M152.11,271.54v-2.69q0.62,0,1.24,0l1,0v2.69l-1,0q-0.62,0-1.24,0" transform="translate(-63.27 -251.8)" fill="#894046"/><path d="M154.34,271.55v-2.69a24.47,24.47,0,0,0,3.58-.41v2.69a24.47,24.47,0,0,1-3.58.41" transform="translate(-63.27 -251.8)" fill="#853e44"/><path d="M157.92,271.15v-2.69l0.57-.12a24.49,24.49,0,0,0,3.52-1V270a24.49,24.49,0,0,1-3.52,1l-0.57.12" transform="translate(-63.27 -251.8)" fill="#803c41"/><path d="M162,270v-2.69a24.22,24.22,0,0,0,2.51-1.11v2.69A24.22,24.22,0,0,1,162,270" transform="translate(-63.27 -251.8)" fill="#7b3a3f"/></g></g></g><g style="isolation:isolate"><g clip-path="url(#clip-path-7)"><g style="isolation:isolate"><path d="M77.08,262v-2.69q0.52,0.27,1,.5v2.69q-0.53-.23-1-0.5" transform="translate(-63.27 -251.8)" fill="#98474d"/><path d="M78.13,262.46v-2.69a15.91,15.91,0,0,0,2.52.87v2.69a15.91,15.91,0,0,1-2.52-.87" transform="translate(-63.27 -251.8)" fill="#93454b"/><path d="M80.65,263.32v-2.69a14.75,14.75,0,0,0,2.11.37v2.69a14.75,14.75,0,0,1-2.11-.37" transform="translate(-63.27 -251.8)" fill="#8e4349"/><path d="M82.77,263.69V261l0.86,0.06c0.46,0,1,0,1.48,0l1.37,0v2.69l-1.37,0c-0.52,0-1,0-1.48,0l-0.86-.06" transform="translate(-63.27 -251.8)" fill="#894046"/><path d="M86.48,263.76v-2.69a33.45,33.45,0,0,0,4.88-.55v2.69a33.45,33.45,0,0,1-4.88.55" transform="translate(-63.27 -251.8)" fill="#853e44"/><path d="M91.36,263.2v-2.69l0.8-.16c5.22-1.11,11.65-3.49,16.79-4.47v2.69c-5.14,1-11.57,3.36-16.79,4.47l-0.8.16" transform="translate(-63.27 -251.8)" fill="#803c41"/><path d="M108.95,258.57v-2.69a23.18,23.18,0,0,1,3.32-.42v2.69a23.18,23.18,0,0,0-3.32.42" transform="translate(-63.27 -251.8)" fill="#853e44"/><path d="M112.27,258.15v-2.69h0.57c0.31,0,.61,0,0.89,0l0.39,0v2.69l-0.39,0c-0.29,0-.58,0-0.89,0h-0.57" transform="translate(-63.27 -251.8)" fill="#894046"/><path d="M114.11,258.21v-2.69a28,28,0,0,1,4,.72v2.69a28,28,0,0,0-4-.72" transform="translate(-63.27 -251.8)" fill="#8e4349"/><path d="M118.1,258.93v-2.69a49.2,49.2,0,0,1,7.68,2.71v2.69a49.2,49.2,0,0,0-7.68-2.71" transform="translate(-63.27 -251.8)" fill="#93454b"/><path d="M125.77,261.64V259c1.56,0.68,3.11,1.43,4.62,2.2,2.52,1.3,4.76,2.56,6.43,3.55a27,27,0,0,0,2.91,1.49v2.69a27,27,0,0,1-2.91-1.49c-1.67-1-3.91-2.26-6.43-3.55-1.51-.77-3.06-1.52-4.62-2.2" transform="translate(-63.27 -251.8)" fill="#98474d"/><path d="M139.73,268.89V266.2a26.66,26.66,0,0,0,4.18,1.43v2.69a26.66,26.66,0,0,1-4.18-1.43" transform="translate(-63.27 -251.8)" fill="#93454b"/></g></g></g><g style="isolation:isolate"><g clip-path="url(#clip-path-8)"><g style="isolation:isolate"><path d="M63.27,256.92v-2.69a0.41,0.41,0,0,1,.29-0.41v2.69a0.41,0.41,0,0,0-.29.41" transform="translate(-63.27 -251.8)" fill="#7b3a3f"/><path d="M63.56,256.51v-2.69h0v2.69h0" transform="translate(-63.27 -251.8)" fill="#803c41"/></g></g></g><g style="isolation:isolate"><g clip-path="url(#clip-path-9)"><g style="isolation:isolate"><polyline points="0.33 4.7 0.33 2.01 0.34 2.01 0.34 4.7 0.33 4.7" fill="#853e44"/><path d="M63.61,256.49v-2.69a4.35,4.35,0,0,1,.61,0v2.69a4.35,4.35,0,0,0-.61,0" transform="translate(-63.27 -251.8)" fill="#894046"/><path d="M64.22,256.51v-2.69a6.54,6.54,0,0,1,.93.17v2.69a6.54,6.54,0,0,0-.93-0.17" transform="translate(-63.27 -251.8)" fill="#8e4349"/><path d="M65.15,256.68V254A19.39,19.39,0,0,1,68,255l1.12,0.49v2.69L68,257.72a19.39,19.39,0,0,0-2.85-1" transform="translate(-63.27 -251.8)" fill="#93454b"/><path d="M69.12,258.2v-2.69c3.84,1.68,6.38,2.92,8,3.75V262c-1.59-.83-4.12-2.07-8-3.75" transform="translate(-63.27 -251.8)" fill="#98474d"/></g></g></g><g style="isolation:isolate"><g clip-path="url(#clip-path-10)"><g style="isolation:isolate"><path d="M164.52,268.88v-2.69A42.64,42.64,0,0,0,170,262.9a44.67,44.67,0,0,1,5.43-3.29,42.26,42.26,0,0,1,4.27-1.89v2.69a42.26,42.26,0,0,0-4.27,1.89,44.67,44.67,0,0,0-5.43,3.29,42.64,42.64,0,0,1-5.45,3.29" transform="translate(-63.27 -251.8)" fill="#7b3a3f"/><path d="M179.67,260.4v-2.69a36.45,36.45,0,0,1,6.08-1.73v2.69a36.45,36.45,0,0,0-6.08,1.73" transform="translate(-63.27 -251.8)" fill="#803c41"/><path d="M185.75,258.67V256a31.48,31.48,0,0,1,4.6-.53v2.69a31.48,31.48,0,0,0-4.6.53" transform="translate(-63.27 -251.8)" fill="#853e44"/><path d="M190.35,258.14v-2.69l1.19,0q0.91,0,1.84.06l0.82,0.07v2.69l-0.82-.07q-0.93-.06-1.84-0.06l-1.19,0" transform="translate(-63.27 -251.8)" fill="#894046"/><path d="M194.19,258.24v-2.69a21.94,21.94,0,0,1,3.16.55v2.69a21.94,21.94,0,0,0-3.16-.55" transform="translate(-63.27 -251.8)" fill="#8e4349"/><path d="M197.35,258.8v-2.69a30.06,30.06,0,0,1,4.83,1.72v2.69a30.06,30.06,0,0,0-4.83-1.72" transform="translate(-63.27 -251.8)" fill="#93454b"/><path d="M202.17,260.51v-2.69l2,0.88,0.27,0.12v2.69l-0.27-.12-2-.88" transform="translate(-63.27 -251.8)" fill="#98474d"/><path d="M204.4,261.51v-2.69a24.8,24.8,0,0,0,3.92,1.34v2.69a24.8,24.8,0,0,1-3.92-1.34" transform="translate(-63.27 -251.8)" fill="#93454b"/><path d="M208.32,262.86v-2.69a23.54,23.54,0,0,0,3.37.59v2.69a23.54,23.54,0,0,1-3.37-.59" transform="translate(-63.27 -251.8)" fill="#8e4349"/><path d="M211.69,263.45v-2.69a22.54,22.54,0,0,0,2.25.11l0.88,0v2.69l-0.88,0a22.54,22.54,0,0,1-2.25-.11" transform="translate(-63.27 -251.8)" fill="#894046"/><path d="M214.82,263.54v-2.69l0.94-.06a20,20,0,0,0,2.06-.28v2.69a20,20,0,0,1-2.06.28l-0.94.06" transform="translate(-63.27 -251.8)" fill="#853e44"/><path d="M217.83,263.2v-2.69a20.89,20.89,0,0,0,3.53-1v2.69a20.89,20.89,0,0,1-3.53,1" transform="translate(-63.27 -251.8)" fill="#803c41"/><path d="M221.36,262.19v-2.69c3.25-1.23,7.09-3.45,12.71-7.29v2.69c-5.62,3.84-9.46,6.06-12.71,7.29" transform="translate(-63.27 -251.8)" fill="#7b3a3f"/></g></g></g><g style="isolation:isolate"><g clip-path="url(#clip-path-11)"><g style="isolation:isolate"><path d="M235.3,254.83v-2.69l0,0.06v2.69l0-.06" transform="translate(-63.27 -251.8)" fill="#98474d"/><path d="M235.32,254.89V252.2a1.63,1.63,0,0,1,.06.27v2.69a1.63,1.63,0,0,0-.06-0.27" transform="translate(-63.27 -251.8)" fill="#93454b"/><path d="M235.38,255.15v-2.69a3.25,3.25,0,0,1,0,.47v2.69a3.25,3.25,0,0,0,0-.47" transform="translate(-63.27 -251.8)" fill="#8e4349"/><path d="M235.42,255.62v-2.69s0,0.06,0,.09v2.69s0-.06,0-0.09" transform="translate(-63.27 -251.8)" fill="#894046"/></g></g></g><path d="M235.3,254.83c0.33,0.82.12,3.35-2.11,10.2-1.53,4.71-3.15,11.64-5.68,17.65a113.45,113.45,0,0,1-5.85,11.67,42.14,42.14,0,0,1-3.89,6c-0.82,1.05-2.29,2.94-3.46,4.28a35,35,0,0,1-6.4,6.38,31.87,31.87,0,0,1-3.46,2.57c-1,.57-1.54.85-2.24,1.2a53.89,53.89,0,0,1-6.33,2.51,37.57,37.57,0,0,1-10.42,2.18c-0.91.05-1.85,0.1-2.9,0.12a27.76,27.76,0,0,1-10.64-2.35,50.43,50.43,0,0,1-4.66-2.39l-6.06-3.26-1.58-.84-0.84-.44a32.57,32.57,0,0,0-6.19-2.42,19,19,0,0,0-6.62-.17,17.87,17.87,0,0,0-8.8,3.89c-0.94.79-2.42,1.83-3.87,2.83s-2.88,1.93-3.68,2.53a16.49,16.49,0,0,1-8.59,3q-0.8.06-1.61,0.06a23.66,23.66,0,0,1-7.64-1.31A65.23,65.23,0,0,1,88,304.26C79.27,296,71,283.57,66.62,265a26.4,26.4,0,0,0-1.15-3.68A19.2,19.2,0,0,0,63.7,258c-0.44-.67-0.65-1.29-0.1-1.46a10.68,10.68,0,0,1,4.4,1.22c4.47,1.93,7.34,3.33,9.08,4.24a15.45,15.45,0,0,0,6.54,1.8c0.46,0,1,0,1.48,0a33.52,33.52,0,0,0,7.05-.74c6.65-1.41,15.28-4.9,20.67-4.9,0.31,0,.61,0,0.89,0,5.3,0.44,11.21,2.88,16.67,5.67,2.52,1.3,4.76,2.56,6.43,3.55a26.82,26.82,0,0,0,7.08,2.92l3.93,1,3.74,0.2,0.52,0q0.62,0,1.24,0a24.47,24.47,0,0,0,11.17-2.69,42.64,42.64,0,0,0,5.45-3.29,44.67,44.67,0,0,1,5.43-3.29,35.92,35.92,0,0,1,16.14-4.18q0.91,0,1.84.06c4.5,0.29,7.69,1.83,10.76,3.22a23.88,23.88,0,0,0,9.8,2.16q0.91,0,1.82-.08c4.82-.4,9.24-2.39,18.31-8.58a1.4,1.4,0,0,1,.79-0.42A0.46,0.46,0,0,1,235.3,254.83ZM138,299.07c0-.17.64-3.44-2.29-9.15-4.89-9.58-13.42-11.64-21.63-11.64a85.81,85.81,0,0,0-8.94.59c-2.79.29-5.31,0.58-7.38,0.58-0.44,0-.87,0-1.26,0-3.3-.23-5.18-0.4-6.2-0.51,6.92,18,27.48,20.68,39.22,20.68a62.69,62.69,0,0,0,8.48-.5m65.62-8.84c5.67-5.09,8.18-10.18,6.81-10.18a2,2,0,0,0-1,.41,12.47,12.47,0,0,1-7,1.95,22.5,22.5,0,0,1-6.94-1.21,29.84,29.84,0,0,0-7.93-1.54q-0.73,0-1.42,0c-18.56,0-21.07,17.71-21.2,18.65a41.24,41.24,0,0,0,12.86,2.13,38.74,38.74,0,0,0,25.8-10.17" transform="translate(-63.27 -251.8)" fill="#cc6068"/><g style="isolation:isolate"><g clip-path="url(#clip-path-12)"><g style="isolation:isolate"><path d="M234.07,254.9v-2.69a1.77,1.77,0,0,1,.54-0.37v2.69a1.77,1.77,0,0,0-.54.37" transform="translate(-63.27 -251.8)" fill="#7b3a3f"/><path d="M234.62,254.53v-2.69l0.14,0v2.69l-0.14,0" transform="translate(-63.27 -251.8)" fill="#803c41"/><path d="M234.75,254.5v-2.69h0.09v2.69h-0.09" transform="translate(-63.27 -251.8)" fill="#853e44"/><path d="M234.84,254.48V251.8h0.07v2.69h-0.07" transform="translate(-63.27 -251.8)" fill="#894046"/><path d="M234.91,254.49V251.8H235v2.69h-0.06" transform="translate(-63.27 -251.8)" fill="#8e4349"/><path d="M235,254.5v-2.69l0.06,0v2.69l-0.06,0" transform="translate(-63.27 -251.8)" fill="#93454b"/><path d="M235,254.52v-2.69l0.09,0.06v2.69l-0.09-.06" transform="translate(-63.27 -251.8)" fill="#98474d"/><path d="M235.12,254.57v-2.69a0.5,0.5,0,0,1,.1.11v2.69a0.5,0.5,0,0,0-.1-0.11" transform="translate(-63.27 -251.8)" fill="#9c4950"/><path d="M235.22,254.68V252a0.79,0.79,0,0,1,.08.15v2.69a0.79,0.79,0,0,0-.08-0.15" transform="translate(-63.27 -251.8)" fill="#98474d"/></g></g></g></g></svg>